<?xml version="1.0" standalone="no"?>
<!DOCTYPE svg PUBLIC "-//W3C//DTD SVG 20010904//EN"
 "http://www.w3.org/TR/2001/REC-SVG-20010904/DTD/svg10.dtd">
<svg version="1.0" xmlns="http://www.w3.org/2000/svg"
 width="1110.000000pt" height="1280.000000pt" viewBox="0 0 1110.000000 1280.000000"
 preserveAspectRatio="xMidYMid meet">
<metadata>
Created by potrace 1.15, written by Peter Selinger 2001-2017
</metadata>
<g transform="translate(0.000000,1280.000000) scale(0.100000,-0.100000)"
fill="#000000" stroke="none">
<path d="M8877 12781 c-200 -81 -375 -377 -536 -906 -41 -138 -75 -274 -110
-450 -58 -287 -73 -406 -78 -650 -9 -368 20 -752 137 -1835 86 -797 92 -912
52 -1004 -27 -59 -48 -70 -102 -51 -95 34 -356 243 -596 478 l-151 148 -22
112 c-58 295 -163 640 -291 957 -284 702 -664 1221 -1115 1522 -100 66 -756
399 -991 502 -433 190 -653 215 -776 89 -143 -146 -121 -450 74 -1043 237
-725 526 -1392 748 -1725 26 -38 49 -74 52 -80 4 -6 -49 -11 -149 -12 -674 -9
-1390 -247 -1973 -656 -562 -394 -981 -885 -1290 -1512 -158 -322 -257 -594
-354 -984 -62 -244 -111 -383 -180 -504 -53 -93 -78 -121 -255 -290 -220 -210
-379 -317 -469 -317 -22 0 -64 11 -94 25 -158 74 -321 -12 -381 -200 -18 -58
-22 -92 -21 -200 1 -177 28 -298 131 -578 269 -732 588 -1148 947 -1232 91
-22 170 -18 364 17 144 25 205 31 327 32 144 1 152 0 205 -26 83 -41 158 -110
401 -368 413 -439 741 -808 991 -1115 168 -207 262 -285 442 -371 182 -86 374
-126 601 -126 114 0 175 5 255 22 113 23 242 77 298 125 82 69 175 235 211
378 80 311 -17 568 -251 665 -40 17 -90 33 -110 37 -21 4 -38 9 -38 12 0 3 16
23 36 46 41 49 101 163 110 213 8 41 15 43 36 7 9 -16 148 -219 308 -453 l292
-425 148 -300 c160 -324 233 -445 330 -543 162 -166 297 -208 675 -206 251 1
393 15 624 64 l133 28 89 88 c103 102 111 121 112 259 0 140 -37 244 -122 338
-27 30 -31 38 -16 34 152 -47 348 -71 580 -71 180 0 225 3 314 23 134 29 246
72 328 127 73 49 73 49 73 31 0 -24 71 -161 115 -223 139 -194 331 -283 585
-271 213 10 368 64 465 161 80 80 96 125 97 270 2 135 -18 212 -72 290 -89
129 -206 178 -427 177 -73 0 -133 3 -133 5 0 3 31 40 68 82 237 266 362 524
393 812 23 210 -16 412 -119 622 l-58 117 31 -7 c16 -4 109 -7 205 -7 194 0
261 12 380 67 215 100 565 646 683 1063 43 154 51 206 51 350 1 170 -14 234
-89 390 -85 175 -102 238 -175 632 -83 451 -138 641 -256 878 -81 164 -159
280 -274 406 -174 192 -436 370 -693 470 l-72 27 -22 84 c-26 100 -30 262 -8
353 7 33 50 134 93 225 242 503 374 1038 389 1575 7 244 -8 395 -77 810 -176
1041 -416 1902 -636 2275 -56 96 -141 187 -199 215 -58 27 -139 29 -198 6z
m144 -154 c19 -12 34 -28 34 -35 0 -6 10 -19 22 -27 105 -73 327 -678 418
-1134 123 -621 250 -1728 231 -2029 -20 -334 -191 -777 -452 -1171 l-27 -42
-72 203 c-87 245 -126 342 -335 833 -271 635 -324 781 -361 995 -17 97 -17
434 -1 560 30 220 102 550 153 698 19 56 18 72 -6 72 -40 0 -170 -463 -217
-770 -31 -198 -30 -504 1 -650 44 -208 140 -461 406 -1075 346 -798 459 -1125
520 -1507 4 -29 11 -38 25 -38 23 0 23 -6 9 118 -13 119 -50 308 -83 422 l-25
85 58 90 c270 419 430 841 448 1180 10 188 -51 889 -114 1310 -3 22 -3 38 -1
35 16 -15 131 -700 154 -915 19 -175 14 -488 -10 -673 -47 -355 -151 -771
-272 -1091 -135 -354 -147 -408 -124 -563 12 -87 53 -210 87 -266 13 -21 52
-52 101 -82 582 -350 870 -721 1031 -1330 16 -63 51 -222 76 -353 83 -433 108
-524 195 -696 73 -144 81 -176 87 -336 6 -161 -12 -273 -73 -455 -48 -145
-196 -441 -293 -585 -113 -169 -115 -172 -136 -155 -9 7 -27 35 -40 60 -22 43
-23 50 -10 86 7 21 18 82 24 134 22 181 21 180 38 180 48 0 144 109 187 214
20 47 20 55 1 62 -9 4 -42 -23 -93 -77 l-78 -82 -50 50 c-75 75 -177 117 -299
124 -44 3 -50 1 -53 -18 -3 -17 17 -32 120 -88 138 -75 151 -85 185 -138 23
-37 24 -41 13 -135 -24 -218 -40 -263 -116 -321 -89 -67 -223 -102 -305 -79
-21 6 -28 4 -33 -9 -9 -22 8 -31 70 -39 89 -11 230 38 307 106 19 16 37 30 41
30 3 0 12 -12 20 -28 8 -15 26 -39 40 -53 l26 -26 -53 -50 c-73 -69 -151 -106
-282 -134 -67 -15 -367 -18 -429 -6 -37 8 -38 7 -32 -15 20 -70 57 -324 62
-430 11 -207 -22 -415 -95 -603 -63 -164 -216 -386 -391 -568 -90 -95 -94
-101 -95 -144 0 -45 -1 -46 -80 -104 -44 -32 -121 -79 -171 -104 l-91 -46
-164 -9 c-90 -5 -249 -10 -354 -10 -225 0 -602 -16 -741 -30 -251 -25 -404
-60 -265 -60 57 0 140 -46 214 -118 91 -89 128 -182 128 -325 -1 -131 -9 -152
-96 -236 l-75 -74 -263 7 c-542 14 -767 39 -895 98 -131 61 -230 189 -402 518
-57 107 -130 241 -163 298 -88 149 -343 473 -642 816 l-140 161 -1 115 c-1 67
-17 232 -39 395 -58 439 -58 584 0 669 19 28 21 37 11 51 -11 16 -15 15 -44
-9 -41 -36 -66 -78 -91 -156 -34 -109 -41 -207 -41 -580 0 -272 -3 -377 -15
-434 -39 -205 -176 -328 -450 -406 -131 -37 -265 -48 -383 -31 -330 48 -733
282 -1221 708 -75 65 -86 72 -99 59 -13 -13 -6 -28 61 -128 304 -452 758 -794
1174 -884 95 -21 312 -24 398 -5 180 37 342 103 461 186 58 40 64 42 106 35
108 -21 226 -84 278 -150 107 -135 125 -335 51 -555 -29 -88 -92 -203 -141
-258 -105 -119 -385 -186 -662 -159 -257 26 -458 99 -633 230 -99 73 -106 81
-297 322 -244 307 -498 599 -944 1085 -230 251 -296 314 -379 362 -48 28 -53
35 -140 208 -139 275 -218 488 -296 797 -106 423 -158 865 -160 1383 -1 240
-1 240 26 300 60 135 88 217 140 409 207 767 519 1358 983 1860 500 541 1220
959 2080 1207 203 59 524 132 533 121 3 -4 98 -122 210 -262 788 -985 1546
-1822 1860 -2053 57 -42 121 -93 141 -114 21 -21 38 -35 38 -30 0 4 -54 143
-119 310 -66 166 -131 347 -145 402 -13 55 -73 343 -131 640 -121 611 -170
837 -257 1180 -156 620 -343 1142 -511 1428 -119 201 -291 400 -472 546 -325
262 -792 456 -1217 506 -54 6 -58 5 -58 -14 0 -15 9 -22 38 -26 293 -49 658
-185 917 -342 356 -216 616 -503 795 -876 240 -502 425 -1139 680 -2347 94
-447 158 -717 193 -816 14 -38 50 -127 82 -199 31 -71 61 -141 67 -155 9 -25
9 -25 -10 -5 -10 11 -127 153 -259 315 -428 525 -788 942 -1030 1192 -158 164
-270 321 -447 630 -287 501 -840 1606 -973 1943 -34 87 -52 110 -68 86 -8 -14
39 -156 120 -356 248 -615 734 -1563 1043 -2030 85 -129 131 -186 241 -300
272 -281 638 -692 1170 -1315 69 -80 136 -158 150 -174 52 -58 -11 -8 -145
114 -316 291 -837 874 -1480 1660 -409 500 -442 546 -558 778 -164 328 -283
623 -446 1112 -207 618 -295 985 -288 1199 5 177 42 219 184 208 160 -11 318
-75 904 -368 455 -228 553 -285 710 -417 503 -421 961 -1230 1280 -2262 188
-611 366 -1079 404 -1064 21 8 20 16 -9 74 -54 106 -163 399 -255 683 l-48
149 141 -139 c375 -366 550 -491 651 -462 47 14 85 58 106 124 18 57 19 58 19
23 2 -82 -66 -212 -187 -361 -58 -72 -69 -98 -39 -97 17 1 133 146 188 235 55
88 81 167 77 227 -2 34 -7 42 -20 40 -15 -2 -17 10 -17 125 0 146 -14 337 -76
1068 -92 1072 -111 1456 -85 1703 70 654 313 1404 537 1652 50 55 119 100 154
100 9 0 31 -10 50 -23z m-7690 -7828 c-6 -73 -11 -223 -11 -333 1 -719 192
-1377 533 -1839 l53 -72 -140 0 c-103 0 -196 -8 -345 -29 -233 -34 -281 -31
-396 23 -276 128 -533 531 -740 1157 -109 328 -129 539 -65 665 33 63 57 68
138 31 154 -71 316 -28 544 144 88 66 273 229 373 329 33 33 61 60 63 59 2 -1
-1 -62 -7 -135z m8483 -3623 c134 -41 223 -171 234 -346 5 -93 -17 -147 -87
-213 -78 -73 -185 -117 -334 -137 -170 -22 -303 -6 -424 51 -104 49 -224 175
-286 299 -70 142 -70 139 7 178 55 28 150 90 242 157 19 14 25 14 58 0 33 -14
54 -15 150 -5 61 6 134 15 161 19 83 14 228 12 279 -3z"/>
<path d="M6109 6374 c-217 -39 -481 -169 -689 -339 -96 -78 -124 -110 -113
-129 7 -13 20 -7 78 33 147 103 353 199 526 247 181 49 424 42 558 -17 24 -10
49 -19 55 -19 6 0 27 39 46 87 19 48 36 91 38 94 4 10 -53 28 -138 45 -92 17
-259 17 -361 -2z"/>
<path d="M4610 6110 c-64 -33 -124 -109 -159 -198 -41 -107 -76 -256 -97 -412
-20 -153 -23 -518 -5 -705 26 -271 85 -600 151 -845 44 -159 54 -185 76 -185
15 0 18 6 17 30 -2 17 -12 129 -23 250 -32 361 -40 525 -40 820 1 453 33 701
127 970 24 69 36 125 40 182 8 114 -11 134 -87 93z"/>
<path d="M5760 5951 c-354 -140 -614 -417 -714 -763 -26 -90 -46 -212 -46
-279 0 -35 3 -40 21 -37 17 2 29 23 58 108 131 370 368 629 706 771 101 42
142 76 151 126 7 39 -6 60 -53 80 -42 17 -68 16 -123 -6z"/>
<path d="M8030 5905 c-15 -18 -13 -19 76 -80 52 -35 207 -114 262 -133 28 -10
30 -13 37 -89 21 -237 83 -376 188 -427 169 -81 543 -38 609 71 l16 27 62 -86
c40 -55 68 -84 76 -81 21 8 17 23 -30 105 -127 224 -286 388 -450 463 -60 28
-98 37 -202 50 -196 24 -356 70 -541 155 -47 22 -87 40 -88 40 -1 0 -8 -7 -15
-15z"/>
<path d="M7231 4725 c-39 -83 -62 -187 -68 -305 -14 -281 39 -416 234 -591
267 -241 856 -512 1346 -619 74 -16 78 -16 87 1 11 19 -26 42 -470 284 -681
372 -926 542 -989 686 -51 115 -99 405 -85 515 5 46 4 53 -14 63 -18 9 -22 6
-41 -34z"/>
<path d="M5465 1928 c13 -74 65 -209 116 -303 173 -313 468 -521 861 -607 121
-26 457 -36 592 -18 339 46 603 197 760 435 78 117 133 285 143 438 l6 99 -23
-4 c-21 -3 -26 -12 -36 -68 -61 -331 -284 -588 -602 -696 -179 -61 -241 -69
-507 -69 -209 1 -253 4 -342 23 -277 60 -492 177 -665 361 -110 117 -217 288
-257 414 -9 26 -18 37 -33 37 -18 0 -19 -4 -13 -42z"/>
</g>
</svg>
